<svg xmlns="http://www.w3.org/2000/svg" xmlns:xlink="http://www.w3.org/1999/xlink" viewBox="0,0,256,256" width="100px" height="100px" fill-rule="nonzero"><g fill="#ef3a43" fill-rule="nonzero" stroke="none" stroke-width="1" stroke-linecap="butt" stroke-linejoin="miter" stroke-miterlimit="10" stroke-dasharray="" stroke-dashoffset="0" font-family="none" font-weight="none" font-size="none" text-anchor="none" style="mix-blend-mode: normal"><g transform="scale(5.12,5.12)"><path d="M12.90625,1.96875c-0.04297,0.00781 -0.08594,0.01953 -0.125,0.03125c-0.46484,0.10547 -0.79297,0.52344 -0.78125,1v3c-0.03125,0 -0.0625,0 -0.09375,0c-0.55078,0.02734 -0.98047,0.49609 -0.95312,1.04688c0.02734,0.55078 0.49609,0.98047 1.04688,0.95313h2c0.35938,0.00391 0.69531,-0.18359 0.87891,-0.49609c0.17969,-0.3125 0.17969,-0.69531 0,-1.00781c-0.18359,-0.3125 -0.51953,-0.5 -0.87891,-0.49609v-3c0.01172,-0.28906 -0.10547,-0.56641 -0.3125,-0.76172c-0.21094,-0.19922 -0.49609,-0.29688 -0.78125,-0.26953zM24.90625,1.96875c-0.04297,0.00781 -0.08594,0.01953 -0.125,0.03125c-0.46484,0.10547 -0.79297,0.52344 -0.78125,1v3c-0.03125,0 -0.0625,0 -0.09375,0c-0.55078,0.02734 -0.98047,0.49609 -0.95312,1.04688c0.02734,0.55078 0.49609,0.98047 1.04688,0.95313h2c0.35938,0.00391 0.69531,-0.18359 0.87891,-0.49609c0.17969,-0.3125 0.17969,-0.69531 0,-1.00781c-0.18359,-0.3125 -0.51953,-0.5 -0.87891,-0.49609v-3c0.01172,-0.28906 -0.10547,-0.56641 -0.3125,-0.76172c-0.21094,-0.19922 -0.49609,-0.29688 -0.78125,-0.26953zM36.90625,1.96875c-0.04297,0.00781 -0.08594,0.01953 -0.125,0.03125c-0.46484,0.10547 -0.79297,0.52344 -0.78125,1v3c-0.03125,0 -0.0625,0 -0.09375,0c-0.55078,0.02734 -0.98047,0.49609 -0.95312,1.04688c0.02734,0.55078 0.49609,0.98047 1.04688,0.95313h2c0.35938,0.00391 0.69531,-0.18359 0.87891,-0.49609c0.17969,-0.3125 0.17969,-0.69531 0,-1.00781c-0.18359,-0.3125 -0.51953,-0.5 -0.87891,-0.49609v-3c0.01172,-0.28906 -0.10547,-0.56641 -0.3125,-0.76172c-0.21094,-0.19922 -0.49609,-0.29688 -0.78125,-0.26953zM3,3c-0.55078,0 -1,0.44922 -1,1v27c0,0.55469 0.44922,1 1,1h44c0.55469,0 1,-0.44531 1,-1v-27c0,-0.55078 -0.44531,-1 -1,-1h-7v1.78125c0.61328,0.55078 1,1.33203 1,2.21875c0,1.65234 -1.34766,3 -3,3h-2c-1.65234,0 -3,-1.34766 -3,-3c0,-0.88672 0.38672,-1.66797 1,-2.21875v-1.78125h-6v1.78125c0.61328,0.55078 1,1.33203 1,2.21875c0,1.65234 -1.34766,3 -3,3h-2c-1.65234,0 -3,-1.34766 -3,-3c0,-0.88672 0.38672,-1.66797 1,-2.21875v-1.78125h-6v1.78125c0.61328,0.55078 1,1.33203 1,2.21875c0,1.65234 -1.34766,3 -3,3h-2c-1.65234,0 -3,-1.34766 -3,-3c0,-0.88672 0.38672,-1.66797 1,-2.21875v-1.78125zM20,34v12h-2c-0.03125,0 -0.0625,0 -0.09375,0c-0.03125,0 -0.0625,0 -0.09375,0c-0.55078,0.05078 -0.95703,0.54297 -0.90625,1.09375c0.05078,0.55078 0.54297,0.95703 1.09375,0.90625h14c0.35938,0.00391 0.69531,-0.18359 0.87891,-0.49609c0.17969,-0.3125 0.17969,-0.69531 0,-1.00781c-0.18359,-0.3125 -0.51953,-0.5 -0.87891,-0.49609h-2v-12z"></path></g></g></svg>